<svg id="_ÎÓÈ_1" data-name="—ÎÓÈ_1" xmlns="http://www.w3.org/2000/svg" viewBox="0 0 470.01 198.59"><defs><style>.cls-1{fill:#c6dcf7;}.cls-2{fill:#693523;}.cls-3{fill:#ffb288;}.cls-4{fill:#fff;}.cls-5{fill:#7396e5;}.cls-6{fill:#1e3056;}.cls-7{fill:#1d1e1c;}.cls-8{fill:#293f77;}.cls-9{fill:#3d62a3;}.cls-10{fill:#333;}.cls-11{fill:#f7665f;}.cls-12{fill:#e23b41;}.cls-13{fill:#dbcc72;}.cls-14{fill:#323444;}.cls-15{fill:#ffd050;}.cls-16{fill:#5f6172;}.cls-17{fill:#bfb45c;}</style></defs><title>Tavola disegno 13</title><path class="cls-1" d="M451.5,198.59H50.25c-3.16,0-4.13-1.54-4.13-3.43s.91-3.43,4.07-3.43H451.37c3.16,0,4.46,1.54,4.46,3.43S454.66,198.59,451.5,198.59Z"/><path class="cls-2" d="M59.07,27.73,59,31.27c-.15,5.27,2.87,9.68,6.73,9.8S72.83,37,73,31.68l.1-3.54v-.08c-4-2.59-8.68-3.39-13.48-3.62A12.38,12.38,0,0,0,59.07,27.73Z"/><path class="cls-3" d="M70.49,35.39a2,2,0,1,1-1.71,1.94A1.85,1.85,0,0,1,70.49,35.39Z"/><path class="cls-2" d="M70.54,33.64c.11-3.55-2.22-6.53-5.17-6.61A4.78,4.78,0,0,0,62,28.34l8.51,5.47Z"/><path class="cls-3" d="M62,28.34a7,7,0,0,0-2.21,5l-.15,5.19c-.11,3.55,2.22,6.52,5.17,6.61s5.45-2.74,5.55-6.29l.15-5Z"/><rect class="cls-3" x="60.31" y="42.57" width="13.25" height="6.46" rx="1.08" transform="translate(19.19 111.36) rotate(-88.31)"/><path class="cls-4" d="M48.71,62.93c-1.37,3.09-2.52,6.15-4,10a19.64,19.64,0,0,0,10.48,4.73c1.39-3.5,2.72-7,4.25-10.49C62.37,60.48,51.66,56.32,48.71,62.93Z"/><path class="cls-3" d="M26.12,75.85C19,74,15.3,77.5,21.85,80.89c1.92,1,6.91,3.51,12.17,5.7a32.32,32.32,0,0,0,2.15-8.93A95.63,95.63,0,0,1,26.12,75.85Z"/><path class="cls-3" d="M53.62,81.62c.32-.88.63-1.73,1-2.52.19-.49.38-1,.58-1.47A19.64,19.64,0,0,1,44.67,72.9c-.59,1.5-1.25,3.13-2,4.92C45.66,80.28,49.66,81.2,53.62,81.62Z"/><path class="cls-3" d="M42.67,77.82c-.13.31-.25.61-.39.93-2-.45-4.07-.78-6.11-1.09A32.32,32.32,0,0,1,34,86.59c6.67,2.78,13.77,5,15.57,3s3-5.17,4-8C49.66,81.2,45.66,80.28,42.67,77.82Z"/><path class="cls-3" d="M18.4,78.22c2.6.81,5.11.17,5.6-1.42s-1.22-3.52-3.82-4.32-5.11-.17-5.6,1.41S15.8,77.42,18.4,78.22Z"/><path class="cls-5" d="M53.19,191.46l10.19-3.34c.5-.16,1.11,0,1.21.38l1.59,5.6c.1.33-.3.63-.82.63H54.45C51.58,194.73,50.64,192.29,53.19,191.46Z"/><path class="cls-5" d="M71.8,191.36,82,188.11c.51-.16,1.12,0,1.21.39l1.55,5.62c.09.33-.31.62-.83.62L73,194.65C70.16,194.62,69.25,192.17,71.8,191.36Z"/><path class="cls-6" d="M82.56,148.39c.77-14.62,2.59-29.22,4.86-39.36,0-.14,0-.28.07-.41l-15.33-1c0,.14,0,.28,0,.42-.59,9.62-.72,23.92-.13,40,0,1.16.09,2.33.14,3.51.45,10.63,1.23,21.94,2.39,33.14a13.16,13.16,0,0,0,4.43,1.05,13.16,13.16,0,0,1-4.43-1.05q.19,2,.42,3.9c.57,5.06,9.09,7,8.58-3.17,0-.56-.08-1.16-.17-1.8-1.2-8.82-1.42-20-1-31.41C82.43,151,82.49,149.67,82.56,148.39Z"/><path class="cls-6" d="M67.85,109,53.7,107.71c-.11,2.4-.23,4.12-.37,4C48.8,121,45.15,131,44.37,141a27,27,0,0,0,.26,6.2c.19,1.23.45,2.5.78,3.83,1.82,7.43,5.69,16.84,10.08,33.21a17.35,17.35,0,0,0,2.21.54,17.35,17.35,0,0,1-2.21-.54c.25.93.5,1.89.75,2.87,2.27,8.78,9,5.37,8.28-1,0-.48-.11-1-.17-1.44a16.62,16.62,0,0,1-3.3.39,16.62,16.62,0,0,0,3.3-.39c-1.23-9.59-3.87-18.76-6.22-28.23-.38-1.56-.73-3-1-4.3a19.68,19.68,0,0,1-.45-4.44c.07-13.41,11.59-30.2,13.82-38.39Z"/><path class="cls-7" d="M49.26,84.89C47.63,76.4,46.32,68,48.2,60a10.91,10.91,0,0,1,9.32-8.23,54.1,54.1,0,0,1,15.56.57c7.15,1.21,13.15,4,14.3,10.07,2.79,14.61,2.49,31.43,1,46.18a4.29,4.29,0,0,1-1,2.86,4.36,4.36,0,0,1-2.94.78l-31.05.73c-.29-1-.57-2-.86-2.94a20.75,20.75,0,0,1-.76-5.2A123.83,123.83,0,0,0,49.26,84.89Z"/><path class="cls-4" d="M63.32,75.47c-1.35-1.82-3.06-.35-3.72,3.19s.12,16.07.12,16.07,3.89-5.8,4.61-9.4S64.65,77.3,63.32,75.47ZM62,87.91c-1.17,0-2.14-2.68-2.18-5.94s1-5.93,2.21-6,2.24,2.61,2.18,5.94S63.17,87.94,62,87.91Z"/><path class="cls-4" d="M63.43,70.6l-.52.3a.88.88,0,0,0-.15-.53.49.49,0,0,0-.59-.12c.1.73.15,1.1.25,1.85.07.55.11.82.18,1.37a1.94,1.94,0,0,0-.56-.08c-.07-.51-.1-.76-.17-1.27-.14-1.09-.22-1.64-.37-2.74l.25-.22c.09-.06.79-.7,1.3,0A3,3,0,0,1,63.43,70.6Z"/><path class="cls-4" d="M58.87,84.48c-.33,2.15-1.1,3.53-2,3.3s-2-2.66-2.18-5.48c-.21-3.28.69-6,2-6.07,1,0,2,1.76,2.27,4.22,0-.78.09-1.47.19-2-.8-3.23-2.49-4.39-3.75-2.59s-1.56,6-.72,9.46c.69,2.82,3.67,7.49,4.58,9C59.15,92.6,58.92,88.36,58.87,84.48Z"/><path class="cls-4" d="M61.35,72.31a5,5,0,0,0-2,2.83,4.42,4.42,0,0,0-2.1-2.62c-.06.5-.08.75-.14,1.25A3.9,3.9,0,0,1,59,76.2c.13.32.23.68.34,1,.1-.37.19-.74.31-1.06a4.51,4.51,0,0,1,1.85-2.61C61.45,73.07,61.42,72.81,61.35,72.31Z"/><path class="cls-4" d="M56.32,71.63h.23c.15,0,.27,0,.33-.07,0-.52-.05-.78-.08-1.29a1.39,1.39,0,0,1-1.61-.58l-.44.6a1.25,1.25,0,0,0,.09.25,1.55,1.55,0,0,0,.9.93c.08.43.12.64.19,1.07s.13.74.21,1.24a1.31,1.31,0,0,1,.43-.08h.11c-.09-.51-.14-.77-.23-1.29C56.4,72.1,56.37,71.94,56.32,71.63Z"/><path class="cls-3" d="M64.61,57.15q-1.3-2.68-2.71-5.32c1.94-1.36,4.46-2.28,6.67-1.44,1.7.65,4.14,2.59,3,4.38-.26.38-1.64,1.71-2.93,3A2.46,2.46,0,0,1,64.61,57.15Z"/><path class="cls-7" d="M63.7,70.07c4.62-4.37,7.73-7.58,11.24-10.71C81,54,90.37,62.53,84.25,68c-3.59,3.2-7,6.65-10.46,10-.24.22-.48.47-.73.71A25.24,25.24,0,0,1,63.7,70.07Z"/><path class="cls-3" d="M45.41,63c4.63,3.38,10.49,6.1,15.64,9.57,1-.87,1.82-1.69,2.65-2.48a25.24,25.24,0,0,0,9.36,8.61c-2.75,2.73-5.78,6.23-9.24,7.79-5,2.24-21.62-16.15-25.16-20.2C33.32,60.17,38.81,58.17,45.41,63Z"/><path class="cls-7" d="M180.36,56.82c-7.93-.79-2.13,9.11,4,17.46l4.67-2.68A72.59,72.59,0,0,0,180.36,56.82Z"/><path class="cls-3" d="M189.08,71.6l-4.67,2.68c4.38,5.92,9,11.06,9,11.06A59.59,59.59,0,0,0,189.08,71.6Z"/><path class="cls-7" d="M140.6,56.52c9.46-4.42,27.48-10.91,39.76.3,0,0-20.44,15.82-41.72,5.34C140,59.15,138.31,59.27,140.6,56.52Z"/><path class="cls-6" d="M151.09,191.48l-10.15-3.33c-.5-.17-1.11,0-1.21.37l-1.59,5.59c-.09.33.3.63.82.63h10.88C152.7,194.74,153.63,192.31,151.09,191.48Z"/><path class="cls-5" d="M142.39,178.06c-.81,2.32-1.56,4.68-2.22,7.08-1.73,6.3,4.23,10.81,7.84,2.38,1-2.23,1.89-4.32,2.78-6.3a14.16,14.16,0,0,1-3.38.4A7.55,7.55,0,0,1,142.39,178.06Z"/><path class="cls-5" d="M159.82,102.71c-1.57-4.41-4.67-5.94-7.66-5.74a64.51,64.51,0,0,0-2.13,7.88,5,5,0,0,1-3.23,5.37c10.34,28.56,11.79,28.45,4.35,46.25-3,7.24-6.21,14.27-8.76,21.59a7.55,7.55,0,0,0,5,3.56,14.16,14.16,0,0,0,3.38-.4c9.34-20.61,15.35-28.38,16.16-37.95C168.11,129.68,164.29,115.27,159.82,102.71Z"/><path class="cls-6" d="M178.66,191.37l-10.15-3.32c-.5-.17-1.11,0-1.21.37L165.71,194c-.09.33.3.63.82.63h10.88C180.27,194.64,181.2,192.21,178.66,191.37Z"/><path class="cls-5" d="M168.37,178.56c-.24,1.47-.49,2.9-.77,4.26-2.43,12,7.12,10.76,8.06,5.48.47-2.64.91-5.3,1.34-8a15.2,15.2,0,0,1-1.64.68A8.06,8.06,0,0,1,168.37,178.56Z"/><path class="cls-5" d="M183.62,108.33c0-.15,0-.28,0-.42H168.28a3.13,3.13,0,0,0,0,.42c1.75,11.13,2.64,27.48,2.26,43.3a209.05,209.05,0,0,1-2.21,26.93,8.06,8.06,0,0,0,7,2.46,15.2,15.2,0,0,0,1.64-.68c1.56-9.72,2.83-19.46,3.82-28.71C182.69,134.24,183.58,118.62,183.62,108.33Z"/><path class="cls-7" d="M142.21,55.92a7.09,7.09,0,0,1,1.49-.79c1.64-.63,19.57-4,23.69-3.3C174.75,53,180.92,56,182.11,62.2c.67,3.53,1.15,7.2,1.49,10.93a5.67,5.67,0,0,1-.12,1.3c-1,7.09-1.92,12.67-1.48,19.07.05.93.13,1.85.22,2.78.32,3.33.91,8.29,1.37,11.63-.1,1.16-.73,4.06-1.52,4.78a4.52,4.52,0,0,1-3,.81l-32,.75q-5.81-19.73-11-39.61A31.5,31.5,0,0,1,142.21,55.92Z"/><path class="cls-3" d="M160.34,58.65c-1.2-1.49-2.43-3-3.68-4.42a2.12,2.12,0,0,1,.34-3.09,6.5,6.5,0,0,1,4.66-1.48c1.85.24,5,1.69,4,3.69a50.56,50.56,0,0,1-2.72,5.09A1.57,1.57,0,0,1,160.34,58.65Z"/><path class="cls-2" d="M174.08,28.64l-.6,3.66c-.9,5.45-4.9,9.37-8.88,8.72s-6.51-5.65-5.61-11.11l.6-3.66s0-.05,0-.08c4.6-1.87,9.61-1.74,14.58-1A12.85,12.85,0,0,1,174.08,28.64Z"/><path class="cls-3" d="M160.81,34.22a2.12,2.12,0,1,0,1.36,2.34A1.94,1.94,0,0,0,160.81,34.22Z"/><path class="cls-2" d="M161.1,32.41c.61-3.66,3.59-6.25,6.64-5.75a5,5,0,0,1,3.17,2l-9.84,3.91Z"/><path class="cls-3" d="M170.91,28.68a7.27,7.27,0,0,1,1.27,5.55l-.88,5.37c-.61,3.66-3.59,6.25-6.64,5.75s-5-3.91-4.44-7.57l.85-5.19Z"/><rect class="cls-3" x="155.44" y="42.25" width="13.87" height="6.76" rx="1.13" transform="translate(91.02 198.45) rotate(-80.67)"/><path class="cls-3" d="M185.91,71.86c.89,1.43,2.75,4.48,4.76,8.14,7.49,10.36.56,23.14-8.07.35-.49-1.37-.94-2.64-1.3-3.74C178.78,68.89,181.64,65,185.91,71.86Z"/><path class="cls-4" d="M172.29,73.41c-2.66-1.76-5.79-.39-6.78,3.15s1.33,16,1.33,16,6.87-6.32,8-9.8S174.91,75.17,172.29,73.41Zm-1.66,12.11c-2.18.1-4.18-2.43-4.48-5.67s1.38-5.89,3.75-5.93,4.37,2.49,4.48,5.66S172.82,85.41,170.63,85.52Z"/><path class="cls-4" d="M172.19,68.73l-1,.26a.73.73,0,0,0-.3-.52,1.68,1.68,0,0,0-1.12-.15c.23.73.35,1.09.58,1.81.17.54.26.8.43,1.34a5.74,5.74,0,0,0-1.06-.09c-.16-.5-.23-.75-.39-1.24-.36-1.08-.53-1.62-.9-2.7l.47-.21a2.68,2.68,0,0,1,2.44.11A2.3,2.3,0,0,1,172.19,68.73Z"/><path class="cls-4" d="M164.54,82.43c-.47,2.19-1.81,3.69-3.57,3.56-2-.17-3.91-2.56-4.48-5.51-.64-3.42.87-6.3,3.31-6.34,2,0,3.8,1.78,4.58,4.24a11.88,11.88,0,0,1,.2-2.06c-1.72-3.22-5-4.47-7.22-2.62s-2.49,6.36-.67,9.9c1.5,2.91,7.41,7.29,9.2,8.64C165.62,90.57,164.9,86.33,164.54,82.43Z"/><path class="cls-4" d="M168.38,70.3a6,6,0,0,0-3.62,2.76,7.69,7.69,0,0,0-4.15-2.7l-.15,1.27a6.67,6.67,0,0,1,3.79,2.49,9.84,9.84,0,0,1,.71,1,6.39,6.39,0,0,1,.51-1.05,5.41,5.41,0,0,1,3.31-2.56Z"/><path class="cls-4" d="M158.84,69.42h.44a2.27,2.27,0,0,0,.62-.06c-.1-.53-.15-.8-.24-1.32-1,.1-2.56-.05-3.09-.69l-.79.59a1.13,1.13,0,0,0,.2.26,3,3,0,0,0,1.77,1l.43,1.12.48,1.27a3.69,3.69,0,0,1,.81-.06h.19c-.2-.53-.31-.8-.52-1.33Z"/><path class="cls-7" d="M146.45,69.53c-.33,2.14-.7,4.42-1.09,7-3.9.09-7.86-.56-10.6-3.11l.24-1.58A24.48,24.48,0,0,0,146.45,69.53Z"/><path class="cls-7" d="M147.28,63.57c-.24,2-.52,3.9-.83,6A24.48,24.48,0,0,1,135,71.88c.55-3.53,1.13-7,1.54-10.59C137.44,53.54,148.17,55.89,147.28,63.57Z"/><path class="cls-7" d="M134.54,74.89c.07-.47.14-1,.22-1.43,2.74,2.55,6.7,3.2,10.6,3.11-.18,1.16-.35,2.37-.53,3.68l-9.53,9.49C134.82,89.05,132.35,88.75,134.54,74.89Z"/><path class="cls-3" d="M139,80.05c6.18-2.36,16-7.43,21.56-9.83,8-3.43,12.35-.78,5.5,4.43-4.54,3.44-25.75,19-30.74,15.09C135.25,89.7,138.66,79.59,139,80.05Z"/><path class="cls-7" d="M405.07,79.11c.87-1.16,1.72-2.3,2.54-3.32,3.14-3.87,6.15-7.87,9.41-11.63,5.56-6.42-5.28-13.93-10.79-7.57-3.07,3.55-5.76,7.13-9.68,12C397.21,73.24,400.75,76.61,405.07,79.11Z"/><path class="cls-3" d="M398.51,85.85c2.51-1.55,4.62-4.18,6.56-6.74-4.32-2.5-7.86-5.87-8.52-10.56-.87,1.08-1.79,2.2-2.8,3.42-5.79-2.85-12.21-4.84-17.45-7.67-7.46-4-12.84-1.24-6.5,4.28C374,72.24,393.68,88.82,398.51,85.85Z"/><path class="cls-3" d="M365.91,60.47a4.62,4.62,0,0,0-2.54.73c-2.63,1.77-.56,4.23.22,4.79a5.57,5.57,0,0,0,2.85.86c2.09.17,4.43-.19,5.7-1.84a2.56,2.56,0,0,0,.58-1.42C372.89,60.76,369,60.43,365.91,60.47Z"/><path class="cls-6" d="M408.69,191.38,418.9,188c.5-.16,1.12,0,1.22.38l1.6,5.62c.09.33-.31.63-.83.63H410C407.07,194.66,406.14,192.22,408.69,191.38Z"/><path class="cls-8" d="M403.73,107.44h15.4a3.13,3.13,0,0,1,0,.42c-1.76,11.19-2.65,27.64-2.27,43.55.28,11.45,1.22,22.62,3,31.37,2.45,12.08-7.15,10.82-8.1,5.51-2.2-12.38-3.92-25-5.19-36.88-1.88-17.49-2.78-33.2-2.81-43.55C403.71,107.71,403.72,107.58,403.73,107.44Z"/><path class="cls-6" d="M429.76,191.46,440,188.11c.5-.17,1.11,0,1.21.38l1.6,5.62c.1.33-.3.63-.82.63H431C428.14,194.74,427.2,192.29,429.76,191.46Z"/><path class="cls-8" d="M424.8,107.51h15.4c0,.14,0,.28,0,.42-1.76,11.2-2.66,27.64-2.27,43.56.28,11.44,1.22,22.62,3,31.36,2.44,12.08-7.16,10.82-8.1,5.52-2.2-12.38-3.92-25-5.19-36.88-1.88-17.5-2.78-33.2-2.82-43.56C424.77,107.79,424.79,107.65,424.8,107.51Z"/><path class="cls-7" d="M404.23,95.74c.1-.93.18-1.86.23-2.8a56.48,56.48,0,0,0-1.67-19.81,116.78,116.78,0,0,1,1.56-11.67c1.19-6.24,7.4-9.21,14.8-10.42,7.15-1.18,15.41-.71,21.37,0,1.6.2,3.05.42,4.25.64,2.94.53,6.12,1.43,7.79,3.91,1.89,2.82,1.14,6.57.3,9.86q-6.19,24.29-13.27,48.32l-32.16-.75a4.55,4.55,0,0,1-3-.81,4.49,4.49,0,0,1-1.07-3c-.12-1.14-.21-2.31-.31-3.48C403.47,102.45,403.92,99.09,404.23,95.74Z"/><path class="cls-3" d="M427.25,57.46q1.67-3.49,3.48-6.92c-2-1.41-4.61-2.36-6.9-1.49-1.77.66-4.29,2.68-3.05,4.54.33.5,2.61,2.64,4.12,4.25A1.43,1.43,0,0,0,427.25,57.46Z"/><path class="cls-2" d="M417,27.91l-.35,3.48c-.52,5.19,2.15,9.75,5.95,10.13s7.32-3.55,7.85-8.74l.35-3.48v-.08c-3.73-2.83-8.32-3.95-13-4.51A12.59,12.59,0,0,0,417,27.91Z"/><path class="cls-3" d="M427.68,36.26a2,2,0,1,1-1.82,1.79A1.83,1.83,0,0,1,427.68,36.26Z"/><path class="cls-2" d="M427.85,34.54c.35-3.49-1.73-6.59-4.63-6.88a4.78,4.78,0,0,0-3.39,1.06l8,6Z"/><path class="cls-3" d="M419.83,28.72a6.9,6.9,0,0,0-2.52,4.76l-.52,5.1c-.35,3.49,1.74,6.59,4.64,6.88s5.56-2.33,5.91-5.82l.49-4.94Z"/><path class="cls-3" d="M426.28,52.39,422.05,52a1.06,1.06,0,0,1-1-1.16l1.1-10.91a1.07,1.07,0,0,1,1.17-1l4.23.42c.58.06,1-.3,1,.28l-1.1,11.8A1.07,1.07,0,0,1,426.28,52.39Z"/><path class="cls-7" d="M452.29,75.86c-4.19-4.46-7.34-7.59-10.4-11.08-5.54-6.33,3.38-16,9-9.65,3.29,3.74,6.83,7.27,10.24,10.91l.38.39A29.12,29.12,0,0,1,452.29,75.86Z"/><path class="cls-3" d="M461.48,66.43c2.86,3,6.69,6.25,8.34,10,2.28,5.19-16.83,22.41-21,26.08-6.34,5.53-8.37-.18-3.35-7,3.52-4.81,6.36-10.89,10-16.24-1.12-1.23-2.14-2.33-3.13-3.39A29.12,29.12,0,0,0,461.48,66.43Z"/><path class="cls-3" d="M440.35,98.65a6.91,6.91,0,0,0-.68,2.8,31.79,31.79,0,0,0-.05,3.65l0,.06c.23.34.49.64.74,1l.14.16.28.24c.11.09.64.43.75.52.39.15.89.32.09.13.21,0,.4.12.6.18a.49.49,0,0,1,0-.12,1.83,1.83,0,0,0,.24.13,2.48,2.48,0,0,0,2.63-1,5.69,5.69,0,0,0,.85-2.85c.16-2.09-.2-4.44-1.85-5.7a2.59,2.59,0,0,0-1.42-.58A2.69,2.69,0,0,0,440.35,98.65Z"/><path class="cls-6" d="M379.29,45.61,378,44.12c-7.48,6.69-11.93,17.45-12.53,30.3-.39,8.41.75,16.86,1.86,25,.35,2.57.72,5.24,1,7.85.36,3.08.76,6,1.13,8.83,2.32,17.28,4.14,30.92-4.37,54.34-7.48,20.56-27.64,19.32-41,18.49-2.24-.13-4.18-.25-5.86-.26-13.18,0-26.52-.15-39.65-.4-8-.15-18-.33-26.11-4.51-12.75-6.55-18.75-20.72-24.26-35.9l-16.35-45c-5.54-15.24-12.7-32-27.69-38-14.73-5.92-31.59,1.62-40.64,12.13-8.41,9.77-13.43,23.68-14.92,41.32-.64,7.59-.66,15.32-.68,22.79,0,7,0,14.18-.56,21.24-.57,7.53-3,20.6-12.88,23.41-7.12,2-14.56-3-17.94-8.75-3.77-6.42-4.35-14.16-4.41-21.58-.07-8.63.46-17.54,1-26.15,1.31-22,2.67-44.67-5.81-65.15-1.45-3.52-3.59-8-7.28-11.11C75.21,48.81,68,47.17,60.13,48.43c-13.19,2.13-23.71,10.85-33.89,19.3C18.12,74.46,9.73,81.42,0,85v2.12c.12,0,.24-.07.36-.12,10.2-3.7,18.82-10.85,27.16-17.77C38,60.61,47.79,52.44,60.44,50.41c7.25-1.17,13.91.31,18.28,4.05,3.37,2.89,5.37,7,6.74,10.36,8.29,20.06,7,42.54,5.65,64.27-.52,8.65-1,17.59-1,26.29.06,7.69.67,15.75,4.68,22.57,3.86,6.57,12,12,20.22,9.67,11-3.15,13.72-17.14,14.32-25.2.53-7.12.55-14.37.57-21.38,0-7.43,0-15.11.67-22.62,1.46-17.22,6.32-30.74,14.45-40.18,8.58-10,24.52-17.16,38.38-11.59C197.64,72.37,204.33,88,210,103.53l16.35,45c5.43,15,11.85,30.12,25.22,37,8.54,4.39,18.77,4.58,27,4.73,13.15.25,26.5.38,39.68.4,1.63,0,3.54.12,5.75.26,2.72.17,5.82.36,9.1.36,12.49,0,27.55-2.77,33.88-20.17,8.68-23.88,6.83-37.74,4.48-55.28-.38-2.82-.77-5.74-1.13-8.8-.31-2.63-.67-5.31-1-7.89-1.1-8.08-2.24-16.44-1.85-24.66C368,62.2,372.21,51.94,379.29,45.61Z"/><rect class="cls-5" x="309.16" y="7.2" width="0.73" height="64.17"/><rect class="cls-5" x="307.1" y="7.2" width="0.73" height="64.17"/><rect class="cls-5" x="305.04" y="7.2" width="0.73" height="64.17"/><rect class="cls-5" x="302.98" y="7.2" width="0.73" height="64.17"/><rect class="cls-5" x="300.93" y="7.2" width="0.73" height="64.17"/><rect class="cls-5" x="298.87" y="7.2" width="0.73" height="64.17"/><rect class="cls-5" x="296.81" y="7.2" width="0.73" height="64.17"/><path class="cls-9" d="M267.56,53.64c-10.82-1.22-19.21-9.1-19.21-18.63V11.18h-4.63V35c0,11.7,10.45,21.36,23.84,22.61Z"/><path class="cls-9" d="M266.11,44.42a17.35,17.35,0,0,1-1.92.13H249.11c-7.76,0-14.07-5.37-14.07-12V7.15h-2.93V32.59c0,8,7.62,14.45,17,14.45h15.08c.65,0,1.29,0,1.92-.1Z"/><path class="cls-9" d="M266.11,39.66H252.9c-7,0-12.76-4.87-12.76-10.85V7.15h-2.67V28.81c0,7.23,6.92,13.11,15.43,13.11h13.21Z"/><rect class="cls-6" x="276.26" y="7.2" width="1.36" height="49.42" transform="translate(553.88 63.83) rotate(180)"/><rect class="cls-6" x="272.99" y="7.2" width="1.36" height="49.42" transform="translate(547.34 63.83) rotate(180)"/><rect class="cls-6" x="265.32" y="13.64" width="4.48" height="44.81" transform="translate(535.12 72.09) rotate(180)"/><path class="cls-8" d="M318.71,2.45V183.1h-4.48v-164a3.73,3.73,0,0,0-3.73-3.72H233.59a3.73,3.73,0,0,0-3.72,3.72v164H225V2.45Z"/><path class="cls-5" d="M285.45,94.46l-1.95.32c.07.42,6.63,42.31-14.09,64.34-9.21,9.79-22.5,14.28-39.54,13.39v2c1.43.08,2.82.11,4.2.11,15.6,0,27.95-4.74,36.79-14.14C292.23,137.72,285.52,94.89,285.45,94.46Z"/><path class="cls-6" d="M306.19,179.46q4.69,0,9.75-.48l-.13-1c-20.55,2-36.81-2.2-48.34-12.43-27.53-24.43-19.32-75.72-19.24-76.24l-1.13-.14c-.09.52-8.37,52.29,19.54,77.06C276.54,175,289.81,179.46,306.19,179.46Z"/><path class="cls-5" d="M282.52,88.66l-3.91.57c.06.44,6.25,44.3-14.13,65.41-8.25,8.55-19.89,12.28-34.61,11.11v3.95c1.76.13,3.49.22,5.17.22,13.41,0,24.24-4.21,32.29-12.55C289.05,134.85,282.79,90.53,282.52,88.66Z"/><rect class="cls-6" x="260.55" y="91.58" width="0.59" height="64.17"/><rect class="cls-6" x="258.88" y="91.58" width="0.59" height="64.17"/><rect class="cls-6" x="257.21" y="91.58" width="0.59" height="64.17"/><rect class="cls-6" x="255.55" y="91.58" width="0.59" height="64.17"/><rect class="cls-6" x="253.88" y="91.58" width="0.59" height="64.17"/><rect class="cls-6" x="252.21" y="91.58" width="0.59" height="64.17"/><rect class="cls-6" x="250.54" y="91.58" width="0.59" height="64.17"/><rect class="cls-10" x="287.87" y="7.2" width="13.7" height="3.88" transform="translate(589.43 18.29) rotate(180)"/><rect class="cls-11" x="228.42" y="58.45" width="86.53" height="1.97" transform="translate(543.37 118.88) rotate(180)"/><path class="cls-9" d="M268.82,163.9a12.79,12.79,0,0,0,1.76.13h13.88c7.13,0,12.93-5.36,12.93-11.95V94.42h2.71v57.66c0,8-7,14.45-15.64,14.45H270.58a17.14,17.14,0,0,1-1.76-.1Z"/><path class="cls-9" d="M263.16,177.15a12.79,12.79,0,0,0,1.76.14H278.8c7.13,0,12.93-6.38,12.93-14.23V94.42h2.7v68.64c0,9.49-7,17.21-15.63,17.21H264.92a14.58,14.58,0,0,1-1.76-.12Z"/><rect class="cls-11" x="228.3" y="61.73" width="86.65" height="2.88" transform="translate(543.25 126.34) rotate(180)"/><rect class="cls-5" x="231.8" width="26.99" height="5.09" rx="1.2" transform="translate(490.59 5.09) rotate(180)"/><rect class="cls-6" x="222.09" y="1.34" width="100.42" height="10.53" transform="translate(544.59 13.21) rotate(180)"/><path class="cls-8" d="M254.36,2.45h64.35a1.53,1.53,0,0,1,1.39,1.64V8.85a1.53,1.53,0,0,1-1.39,1.64H254.36Z"/><path class="cls-8" d="M226,2.45h4.39v8H226a1.64,1.64,0,0,1-1.64-1.64V4.09A1.63,1.63,0,0,1,226,2.45Z"/><rect class="cls-6" x="222.12" y="55.61" width="99.87" height="17.73" rx="2.01"/><path class="cls-5" d="M225.89,57.27A1.74,1.74,0,0,0,224.16,59V69.12a1.74,1.74,0,0,0,1.73,1.73h87.8a1.74,1.74,0,0,0,1.74-1.73V59a1.74,1.74,0,0,0-1.74-1.74ZM223.6,69.12V59a2.3,2.3,0,0,1,2.29-2.29h87.8A2.3,2.3,0,0,1,316,59V69.12a2.29,2.29,0,0,1-2.29,2.28h-87.8A2.29,2.29,0,0,1,223.6,69.12Z"/><path class="cls-8" d="M319.12,61.57a.74.74,0,0,0,.74-.74V58.61a.74.74,0,1,0-1.47,0v2.22A.74.74,0,0,0,319.12,61.57Z"/><path class="cls-8" d="M319.12,66.12a.74.74,0,0,0,.74-.74V63.16a.74.74,0,1,0-1.47,0v2.22A.74.74,0,0,0,319.12,66.12Z"/><path class="cls-8" d="M319.12,70.67a.74.74,0,0,0,.74-.74V67.71a.74.74,0,1,0-1.47,0v2.22A.74.74,0,0,0,319.12,70.67Z"/><path class="cls-8" d="M227.49,66.64V61.49a2.28,2.28,0,0,1,2.27-2.28H284a2.29,2.29,0,0,1,2.28,2.28v5.15A2.28,2.28,0,0,1,284,68.91H229.76A2.27,2.27,0,0,1,227.49,66.64Z"/><rect class="cls-8" x="286" y="63.46" width="14.44" height="1.2"/><rect class="cls-8" x="297.53" y="58.59" width="15.74" height="10.81" rx="1.56"/><rect class="cls-5" x="298.92" y="59.72" width="13.32" height="3.93" rx="0.44"/><rect class="cls-6" x="299.94" y="60.45" width="11.35" height="3.2" rx="0.46"/><rect class="cls-5" x="310.81" y="66.82" width="1.2" height="1.2" rx="0.23"/><rect class="cls-5" x="309.01" y="66.82" width="1.2" height="1.2" rx="0.23"/><rect class="cls-5" x="307.21" y="66.82" width="1.2" height="1.2" rx="0.23"/><rect class="cls-5" x="305.42" y="66.82" width="1.2" height="1.2" rx="0.23"/><rect class="cls-5" x="303.62" y="66.82" width="1.2" height="1.2" rx="0.23"/><rect class="cls-5" x="301.82" y="66.82" width="1.2" height="1.2" rx="0.23"/><rect class="cls-5" x="310.81" y="64.88" width="1.2" height="1.2" rx="0.23"/><rect class="cls-5" x="309.02" y="64.88" width="1.2" height="1.2" rx="0.23"/><rect class="cls-5" x="307.23" y="64.88" width="1.2" height="1.2" rx="0.23"/><rect class="cls-5" x="305.44" y="64.88" width="1.2" height="1.2" rx="0.23"/><rect class="cls-5" x="303.65" y="64.88" width="1.2" height="1.2" rx="0.23"/><rect class="cls-5" x="301.86" y="64.88" width="1.2" height="1.2" rx="0.23"/><rect class="cls-5" x="299.05" y="64.88" width="1.83" height="3.25" rx="0.42"/><rect class="cls-5" x="316.64" y="3.2" width="1.21" height="5.99"/><rect class="cls-5" x="312.83" y="3.2" width="1.2" height="5.99"/><rect class="cls-5" x="309.03" y="3.2" width="1.2" height="5.99"/><rect class="cls-5" x="305.22" y="3.2" width="1.19" height="5.99"/><rect class="cls-5" x="301.42" y="3.2" width="1.18" height="5.99"/><rect class="cls-5" x="297.62" y="3.2" width="1.18" height="5.99"/><rect class="cls-5" x="293.81" y="3.2" width="1.17" height="5.99"/><rect class="cls-5" x="290.01" y="3.2" width="1.16" height="5.99"/><rect class="cls-5" x="286.2" y="3.2" width="1.16" height="5.99"/><rect class="cls-5" x="282.4" y="3.2" width="1.15" height="5.99"/><rect class="cls-5" x="278.6" y="3.2" width="1.14" height="5.99"/><rect class="cls-5" x="274.79" y="3.2" width="1.14" height="5.99"/><rect class="cls-5" x="270.99" y="3.2" width="1.13" height="5.99"/><rect class="cls-5" x="267.19" y="3.2" width="1.13" height="5.99"/><rect class="cls-5" x="263.38" y="3.2" width="1.12" height="5.99"/><rect class="cls-5" x="259.58" y="3.2" width="1.11" height="5.99"/><rect class="cls-5" x="255.77" y="3.2" width="1.11" height="5.99"/><rect class="cls-6" x="222.12" y="183.1" width="99.87" height="11.64" transform="translate(544.12 377.84) rotate(180)"/><rect class="cls-8" x="227.49" y="185.13" width="90.67" height="7.02" rx="1.66" transform="translate(545.64 377.28) rotate(180)"/><rect class="cls-5" x="314.23" y="185.78" width="1.2" height="5.59"/><rect class="cls-5" x="311.42" y="185.78" width="1.19" height="5.59"/><rect class="cls-5" x="308.61" y="185.78" width="1.19" height="5.59"/><rect class="cls-5" x="305.79" y="185.78" width="1.18" height="5.59"/><rect class="cls-5" x="302.98" y="185.78" width="1.17" height="5.59"/><rect class="cls-5" x="300.17" y="185.78" width="1.17" height="5.59"/><rect class="cls-5" x="297.36" y="185.78" width="1.16" height="5.59"/><rect class="cls-5" x="294.55" y="185.78" width="1.15" height="5.59"/><rect class="cls-5" x="291.74" y="185.78" width="1.15" height="5.59"/><rect class="cls-5" x="288.92" y="185.78" width="1.14" height="5.59"/><rect class="cls-5" x="286.11" y="185.78" width="1.13" height="5.59"/><rect class="cls-5" x="283.3" y="185.78" width="1.13" height="5.59"/><rect class="cls-5" x="280.49" y="185.78" width="1.12" height="5.59"/><rect class="cls-5" x="277.68" y="185.78" width="1.12" height="5.59"/><rect class="cls-5" x="274.87" y="185.78" width="1.11" height="5.59"/><rect class="cls-5" x="272.06" y="185.78" width="1.1" height="5.59"/><rect class="cls-5" x="269.24" y="185.78" width="1.1" height="5.59"/><rect class="cls-5" x="266.42" y="185.78" width="1.2" height="5.59"/><rect class="cls-5" x="263.61" y="185.78" width="1.19" height="5.59"/><rect class="cls-5" x="260.79" y="185.78" width="1.19" height="5.59"/><rect class="cls-5" x="257.98" y="185.78" width="1.18" height="5.59"/><rect class="cls-5" x="255.17" y="185.78" width="1.17" height="5.59"/><rect class="cls-5" x="252.36" y="185.78" width="1.17" height="5.59"/><rect class="cls-5" x="249.55" y="185.78" width="1.16" height="5.59"/><rect class="cls-5" x="246.74" y="185.78" width="1.15" height="5.59"/><rect class="cls-5" x="243.93" y="185.78" width="1.15" height="5.59"/><rect class="cls-5" x="241.11" y="185.78" width="1.14" height="5.59"/><rect class="cls-5" x="238.3" y="185.78" width="1.13" height="5.59"/><rect class="cls-5" x="235.49" y="185.78" width="1.13" height="5.59"/><rect class="cls-5" x="232.68" y="185.78" width="1.12" height="5.59"/><rect class="cls-5" x="229.87" y="185.78" width="1.12" height="5.59"/><path class="cls-5" d="M277.84,64.22a1.65,1.65,0,1,0,1.64-1.64A1.64,1.64,0,0,0,277.84,64.22Z"/><path class="cls-5" d="M269.94,64.22a1.64,1.64,0,1,0,1.64-1.64A1.64,1.64,0,0,0,269.94,64.22Z"/><path class="cls-5" d="M262,64.22a1.64,1.64,0,1,0,1.64-1.64A1.63,1.63,0,0,0,262,64.22Z"/><path class="cls-5" d="M254.13,64.22a1.65,1.65,0,1,0,1.64-1.64A1.64,1.64,0,0,0,254.13,64.22Z"/><path class="cls-5" d="M246.23,64.22a1.64,1.64,0,1,0,1.64-1.64A1.63,1.63,0,0,0,246.23,64.22Z"/><path class="cls-5" d="M238.33,64.22A1.64,1.64,0,1,0,240,62.58,1.63,1.63,0,0,0,238.33,64.22Z"/><path class="cls-5" d="M230.42,64.22a1.65,1.65,0,1,0,1.64-1.64A1.64,1.64,0,0,0,230.42,64.22Z"/><rect class="cls-11" x="228.91" y="81.28" width="86.53" height="1.97"/><rect class="cls-11" x="228.91" y="84.56" width="86.65" height="2.88"/><rect class="cls-6" x="221.87" y="78.45" width="99.87" height="17.73" rx="2.01"/><path class="cls-5" d="M230.17,80.11a1.73,1.73,0,0,0-1.74,1.73V92a1.73,1.73,0,0,0,1.74,1.73H318A1.73,1.73,0,0,0,319.7,92V81.84A1.73,1.73,0,0,0,318,80.11ZM318,94.24h-87.8A2.3,2.3,0,0,1,227.88,92V81.84a2.3,2.3,0,0,1,2.29-2.29H318a2.3,2.3,0,0,1,2.29,2.29V92A2.3,2.3,0,0,1,318,94.24Z"/><path class="cls-8" d="M224.73,84.4a.74.74,0,0,1-.74-.74V81.45a.74.74,0,0,1,1.48,0v2.21A.74.74,0,0,1,224.73,84.4Z"/><path class="cls-8" d="M224.73,89a.74.74,0,0,1-.74-.74V86a.74.74,0,0,1,1.48,0v2.21A.74.74,0,0,1,224.73,89Z"/><path class="cls-8" d="M224.73,93.5a.74.74,0,0,1-.74-.74V90.54a.74.74,0,0,1,1.48,0v2.22A.74.74,0,0,1,224.73,93.5Z"/><path class="cls-8" d="M314.1,91.74H259.86a2.28,2.28,0,0,1-2.28-2.27V84.32a2.28,2.28,0,0,1,2.28-2.27H314.1a2.27,2.27,0,0,1,2.27,2.27v5.15A2.27,2.27,0,0,1,314.1,91.74Z"/><rect class="cls-8" x="243.41" y="86.3" width="14.44" height="1.2"/><rect class="cls-8" x="230.58" y="81.42" width="15.74" height="10.81" rx="1.56"/><rect class="cls-5" x="231.62" y="82.56" width="13.32" height="3.93" rx="0.44"/><rect class="cls-6" x="232.57" y="83.28" width="11.35" height="3.2" rx="0.46"/><rect class="cls-5" x="231.85" y="89.65" width="1.2" height="1.2" rx="0.23"/><rect class="cls-5" x="233.65" y="89.65" width="1.2" height="1.2" rx="0.23"/><rect class="cls-5" x="235.44" y="89.65" width="1.2" height="1.2" rx="0.23"/><rect class="cls-5" x="237.24" y="89.65" width="1.2" height="1.2" rx="0.23"/><rect class="cls-5" x="239.04" y="89.65" width="1.2" height="1.2" rx="0.23"/><rect class="cls-5" x="240.84" y="89.65" width="1.2" height="1.2" rx="0.23"/><rect class="cls-5" x="231.85" y="87.72" width="1.2" height="1.2" rx="0.23"/><rect class="cls-5" x="233.64" y="87.72" width="1.2" height="1.2" rx="0.23"/><rect class="cls-5" x="235.43" y="87.72" width="1.2" height="1.2" rx="0.23"/><rect class="cls-5" x="237.22" y="87.72" width="1.2" height="1.2" rx="0.23"/><rect class="cls-5" x="239.01" y="87.72" width="1.2" height="1.2" rx="0.23"/><rect class="cls-5" x="240.8" y="87.72" width="1.2" height="1.2" rx="0.23"/><rect class="cls-5" x="242.98" y="87.72" width="1.83" height="3.25" rx="0.42"/><path class="cls-5" d="M266,87.06a1.65,1.65,0,1,1-1.64-1.64A1.65,1.65,0,0,1,266,87.06Z"/><path class="cls-5" d="M273.92,87.06a1.64,1.64,0,1,1-1.64-1.64A1.65,1.65,0,0,1,273.92,87.06Z"/><path class="cls-5" d="M281.82,87.06a1.64,1.64,0,1,1-1.64-1.64A1.64,1.64,0,0,1,281.82,87.06Z"/><path class="cls-5" d="M289.73,87.06a1.65,1.65,0,1,1-1.64-1.64A1.65,1.65,0,0,1,289.73,87.06Z"/><path class="cls-5" d="M297.63,87.06A1.64,1.64,0,1,1,296,85.42,1.65,1.65,0,0,1,297.63,87.06Z"/><path class="cls-5" d="M305.53,87.06a1.64,1.64,0,1,1-1.64-1.64A1.64,1.64,0,0,1,305.53,87.06Z"/><path class="cls-5" d="M313.44,87.06a1.65,1.65,0,1,1-1.64-1.64A1.65,1.65,0,0,1,313.44,87.06Z"/><path class="cls-9" d="M265.4,151a16.07,16.07,0,0,1,2.07,1.54v-.64a16.55,16.55,0,0,0-2.07-1.49Z"/><path class="cls-9" d="M268,152.33V153h.65C268.41,152.74,268.19,152.52,268,152.33Z"/><path class="cls-9" d="M260.23,148.55c-6.78-1-12.27,3.76-12.32,3.81l.29.4c.05,0,5.39-4.65,12-3.7a11.3,11.3,0,0,1,1.38.29v-.52A12.09,12.09,0,0,0,260.23,148.55Z"/><path class="cls-9" d="M268.72,153.05v.69a26.31,26.31,0,0,1,2.86,3.48L272,157A27,27,0,0,0,268.72,153.05Z"/><path class="cls-9" d="M264.59,150a14.18,14.18,0,0,0-2.33-1v.54a12.78,12.78,0,0,1,2.33,1Z"/><path class="cls-9" d="M261.15,145.74c-.14,0-.27-.07-.41-.09-8.45-1.22-15.09,4.49-15.36,4.73l.88,1.19c.07,0,6.45-5.53,14.31-4.4.34.05.66.14,1,.21v-1A.85.85,0,0,1,261.15,145.74Z"/><path class="cls-9" d="M273.61,156.11c.41-.24.82-.48,1.25-.75a27.72,27.72,0,0,0-6.89-6.85v1.79A26.76,26.76,0,0,1,273.61,156.11Z"/><path class="cls-9" d="M262.26,146.42v1.11a16.56,16.56,0,0,1,5.21,2.44v-1.78a17.44,17.44,0,0,0-4.88-2.15A.81.81,0,0,1,262.26,146.42Z"/><path class="cls-6" d="M262.26,149.56v-3.14a.74.74,0,0,1-.35.1.68.68,0,0,1-.35-.1V155h.7Z"/><path class="cls-6" d="M261.56,146.42a.68.68,0,0,0,.35.1.74.74,0,0,0,.35-.1.89.89,0,0,0,.41-.72v-2.1h-1.53v2.1A.89.89,0,0,0,261.56,146.42Z"/><path class="cls-12" d="M263.3,155h-2.71v5.39a22.21,22.21,0,0,0,2.71-.33Z"/><path class="cls-6" d="M264.81,151.39V156h.37v-4.6a.46.46,0,0,1-.19.08C264.92,151.47,264.87,151.42,264.81,151.39Z"/><path class="cls-6" d="M265.4,149.92h-.81V151a.43.43,0,0,0,.22.36c.06,0,.11.08.18.08a.46.46,0,0,0,.19-.08.44.44,0,0,0,.22-.36v-1.11Z"/><path class="cls-12" d="M265.18,156h-.89v3.89c.46-.11.94-.23,1.44-.37V156Z"/><path class="cls-6" d="M267.47,151.93v1h.5v-6.2a.49.49,0,0,1-.25.12.53.53,0,0,1-.25-.12v5.18Z"/><path class="cls-6" d="M268,146.75a.54.54,0,0,0,.3-.47v-1.51h-1.09v1.51a.54.54,0,0,0,.29.47.53.53,0,0,0,.25.12A.49.49,0,0,0,268,146.75Z"/><path class="cls-6" d="M268.72,153.05V153h-1.94v6.25c.62-.2,1.27-.44,1.94-.7v-5.45Z"/><path class="cls-9" d="M258.35,160.39v-4.9a1.87,1.87,0,0,0-1.79-1.94h-1.3a1.87,1.87,0,0,1-1.79-1.94v-5.25a1.88,1.88,0,0,0-1.79-1.94H242a1.88,1.88,0,0,0-1.79,1.94v11.87c.74.27,1.35.38,2,.58v-3.08h6.45v4.41C249.29,160.3,252,160.39,258.35,160.39ZM249.8,157a.78.78,0,1,1,.78.85A.81.81,0,0,1,249.8,157Zm-4.09-7.31h-3V146h3Zm.47.89a.15.15,0,0,1,.14.15v.55h.16v-.55a.14.14,0,1,1,.28,0v.55h.16v-.55a.15.15,0,0,1,.14-.15.15.15,0,0,1,.14.15v.55h.16v-.55a.15.15,0,0,1,.14-.15.15.15,0,0,1,.14.15v.55h.23v2.78h-.23v.61a.15.15,0,0,1-.14.15.15.15,0,0,1-.14-.15v-.61h-.16v.61a.15.15,0,0,1-.14.15.15.15,0,0,1-.14-.15v-.61h-.16v.61a.14.14,0,1,1-.28,0v-.61h-.16v.61a.15.15,0,0,1-.14.15.15.15,0,0,1-.14-.15v-.61h-.17v.61a.14.14,0,1,1-.27,0v-.61h-.17v.61a.15.15,0,0,1-.14.15.15.15,0,0,1-.14-.15v-.61H245v.61a.14.14,0,1,1-.28,0v-.61h-.16v.61a.15.15,0,0,1-.14.15.15.15,0,0,1-.14-.15v-.61h-.17v.61a.15.15,0,0,1-.14.15.15.15,0,0,1-.14-.15v-.61h-.16v.61a.14.14,0,1,1-.28,0v-.61h-.16v.61a.14.14,0,1,1-.28,0v-.61h-.16v.61a.14.14,0,1,1-.28,0v-.61h-.25V151.3h.25v-.55a.14.14,0,1,1,.28,0v.55h.16v-.55a.14.14,0,1,1,.28,0v.55h.16v-.55a.14.14,0,1,1,.28,0v.55h.16v-.55a.15.15,0,0,1,.14-.15.15.15,0,0,1,.14.15v.55h.17v-.55a.15.15,0,0,1,.14-.15.15.15,0,0,1,.14.15v.55h.16v-.55a.14.14,0,1,1,.28,0v.55h.16v-.55a.15.15,0,0,1,.14-.15.15.15,0,0,1,.14.15v.55h.17v-.55a.14.14,0,1,1,.27,0v.55H246v-.55A.15.15,0,0,1,246.18,150.6Zm.5-2a.57.57,0,1,1-.52.56A.54.54,0,0,1,246.68,148.62Zm4.94-.79h-.34v.25a.07.07,0,1,1-.14,0v-.25h-.08v.25a.07.07,0,1,1-.14,0v-.25h-.08v.25a.07.07,0,1,1-.14,0v-.25h-.08v.25a.09.09,0,0,1-.08.08.08.08,0,0,1-.07-.08v-.25h-.08v.25a.07.07,0,1,1-.14,0v-.25h-.08v.25a.08.08,0,0,1-.07.07.07.07,0,0,1-.07-.07v-.25h-.09v.25s0,.08-.06.08a.08.08,0,0,1-.08-.08v-.25h-.08v.25a.07.07,0,1,1-.14,0v-.25h-.08v.25a.07.07,0,1,1-.14,0v-.25h-.09v.25a.08.08,0,0,1-.07.08.09.09,0,0,1-.07-.08v-.25h-.08v.25a.07.07,0,1,1-.14,0v-.25h-.08v.25a.07.07,0,1,1-.14,0v-.25h-.1v.25a.07.07,0,1,1-.14,0v-.25h-.08v.25a.07.07,0,1,1-.14,0v-.25h-.08v.25a.08.08,0,1,1-.15,0v-.25h-.08v.25a.07.07,0,1,1-.14,0v-.25h-.08v.25a.07.07,0,1,1-.14,0v-.25h-.08v.25a.08.08,0,0,1-.07.07.08.08,0,0,1-.08-.07v-.25h-.08v.25a.07.07,0,1,1-.14,0v-.25H247v.25a.07.07,0,1,1-.14,0v-.25h-.08v.25a.09.09,0,0,1-.07.08.08.08,0,0,1-.07-.08v-.25h-.19v-2.54h.19v-.24a.07.07,0,0,1,.07-.07.08.08,0,0,1,.07.07v.24h.08v-.24a.07.07,0,1,1,.14,0v.24h.08v-.24a.07.07,0,1,1,.14,0v.24h.08v-.24a.08.08,0,0,1,.08-.07.08.08,0,0,1,.07.07v.24h.08v-.24a.07.07,0,1,1,.14,0v.24h.08v-.24a.07.07,0,1,1,.14,0v.24H248v-.24a.08.08,0,0,1,.07-.07.08.08,0,0,1,.08.07v.24h.08v-.24a.07.07,0,1,1,.14,0v.24h.08v-.24a.07.07,0,1,1,.14,0v.24h.1v-.24a.07.07,0,1,1,.14,0v.24h.08v-.24a.07.07,0,1,1,.14,0v.24h.08v-.24a.08.08,0,0,1,.07-.07.07.07,0,0,1,.07.07v.24h.09v-.24a.07.07,0,1,1,.14,0v.24h.08v-.24a.07.07,0,1,1,.14,0v.24h.08v-.24a.07.07,0,0,1,.08-.07.07.07,0,0,1,.06.07v.24H250v-.24a.07.07,0,0,1,.07-.07.08.08,0,0,1,.07.07v.24h.08v-.24a.07.07,0,1,1,.14,0v.24h.08v-.24a.07.07,0,0,1,.07-.07.08.08,0,0,1,.08.07v.24h.08v-.24a.07.07,0,1,1,.14,0v.24h.08v-.24a.07.07,0,1,1,.14,0v.24h.08v-.24a.07.07,0,1,1,.14,0v.24h.34Zm.08,4V152h.59a.16.16,0,0,1,0,.32h-.59v.56h-.35v.54a.15.15,0,1,1-.3,0v-.54h-.19v.54a.15.15,0,1,1-.3,0v-.54h-.27v.54a.15.15,0,1,1-.3,0v-.54h-.25v.54a.15.15,0,0,1-.14.16.15.15,0,0,1-.15-.16v-.54h-.38v-.56h-.68a.16.16,0,0,1,0-.32h.68v-.21h-.68a.16.16,0,0,1-.15-.16.16.16,0,0,1,.15-.16h.68v-.3h-.68a.16.16,0,0,1-.15-.16.16.16,0,0,1,.15-.16h.68v-.26h-.68a.17.17,0,0,1-.15-.17.15.15,0,0,1,.15-.15h.68v-.64h.38v-.62a.15.15,0,0,1,.15-.16.15.15,0,0,1,.14.16v.62H250v-.62a.15.15,0,1,1,.3,0v.62h.27v-.62a.15.15,0,1,1,.3,0v.62h.19v-.62a.15.15,0,1,1,.3,0v.62h.35v.64h.59a.15.15,0,0,1,.15.15.17.17,0,0,1-.15.17h-.59v.26h.59a.16.16,0,0,1,.15.16.16.16,0,0,1-.15.16h-.59v.3h.59a.16.16,0,0,1,.15.16.16.16,0,0,1-.15.16Zm1.77,3.36h-5.11v-.65h.35v-.46a.11.11,0,0,1,.11-.12.12.12,0,0,1,.12.12v.46h.13v-.46a.12.12,0,0,1,.12-.12.11.11,0,0,1,.11.12v.46h.14v-.46a.11.11,0,0,1,.11-.12.12.12,0,0,1,.12.12v.46h.13v-.46a.12.12,0,0,1,.12-.12.11.11,0,0,1,.11.12v.46h.14v-.46a.11.11,0,0,1,.11-.12.12.12,0,0,1,.12.12v.46h.13v-.46a.12.12,0,0,1,.24,0v.46h.13v-.46A.12.12,0,0,1,251,154a.11.11,0,0,1,.11.12v.46h.13v-.46a.12.12,0,0,1,.24,0v.46h.13v-.46a.12.12,0,0,1,.12-.12.11.11,0,0,1,.11.12v.46H252v-.46a.11.11,0,0,1,.11-.12.12.12,0,0,1,.12.12v.46h.13v-.46a.12.12,0,0,1,.12-.12.11.11,0,0,1,.11.12v.46h.14v-.46a.11.11,0,0,1,.11-.12.12.12,0,0,1,.12.12v.46h.51Zm2.45-.38a.48.48,0,1,1-.48-.51A.5.5,0,0,1,255.92,154.81Z"/><path class="cls-13" d="M248.37,160c0-.06-.06-.11-.12-.11h-.44v-.17h.44a.15.15,0,0,0,0-.3h-.44v-.18h.44a.15.15,0,0,0,0-.3h-.44v-.17h.44a.15.15,0,0,0,0-.3h-.44v-.18h.44a.13.13,0,0,0,.13-.14.14.14,0,0,0-.13-.15h-.44v-.18h.44a.14.14,0,0,0,.13-.15.14.14,0,0,0-.13-.15h-.44v-.17h.44a.15.15,0,0,0,0-.3h-.44v-.71H243.2v.71h-.42a.15.15,0,0,0,0,.3h.42v.17h-.42a.15.15,0,0,0-.14.15.14.14,0,0,0,.14.15h.42V158h-.42a.14.14,0,0,0-.14.15.14.14,0,0,0,.14.14h.42v.18h-.42a.13.13,0,0,0-.11.09l-.42-.12v-2.71h6.45V160Z"/><path class="cls-6" d="M245.71,146h-3v3.67h3Zm-.71,1.62a.07.07,0,1,1,0,.14h-.25v.13H245a.07.07,0,0,1,.07.07.07.07,0,0,1-.07.06h-.25v.09H245a.08.08,0,0,1,.07.07.07.07,0,0,1-.07.07h-.25v.24h-.15v.23a.07.07,0,0,1-.06.07s-.06,0-.06-.07v-.23h-.09v.23a.07.07,0,0,1-.06.07.07.07,0,0,1-.07-.07v-.23h-.11v.23a.07.07,0,0,1-.07.07.07.07,0,0,1-.06-.07v-.23h-.1v.23a.07.07,0,0,1-.07.07.07.07,0,0,1-.06-.07v-.23h-.16v-.24h-.3a.07.07,0,0,1-.06-.07s0-.07.06-.07h.3v-.09h-.3a.06.06,0,0,1-.06-.06.07.07,0,0,1,.06-.07h.3v-.13h-.3a.07.07,0,0,1,0-.14h.3v-.12h-.3a.07.07,0,0,1-.06-.07.06.06,0,0,1,.06-.06h.3v-.27h.16v-.27a.07.07,0,0,1,.06-.07.07.07,0,0,1,.07.07v.27h.1v-.27a.07.07,0,0,1,.06-.07.07.07,0,0,1,.07.07v.27h.11v-.27a.07.07,0,0,1,.07-.07.07.07,0,0,1,.06.07v.27h.09v-.27s0-.07.06-.07a.07.07,0,0,1,.06.07v.27h.15v.27H245a.07.07,0,0,1,.07.06.07.07,0,0,1-.07.07h-.25v.12Z"/><path class="cls-5" d="M252.36,154.54h-.13v-.46a.12.12,0,0,0-.12-.12.11.11,0,0,0-.11.12v.46h-.14v-.46a.11.11,0,0,0-.11-.12.12.12,0,0,0-.12.12v.46h-.13v-.46a.12.12,0,0,0-.24,0v.46h-.13v-.46A.11.11,0,0,0,251,154a.12.12,0,0,0-.12.12v.46h-.13v-.46a.12.12,0,0,0-.24,0v.46h-.13v-.46a.12.12,0,0,0-.12-.12.11.11,0,0,0-.11.12v.46H250v-.46a.11.11,0,0,0-.11-.12.12.12,0,0,0-.12.12v.46h-.13v-.46a.12.12,0,0,0-.12-.12.11.11,0,0,0-.11.12v.46h-.14v-.46a.11.11,0,0,0-.11-.12.12.12,0,0,0-.12.12v.46h-.13v-.46a.12.12,0,0,0-.12-.12.11.11,0,0,0-.11.12v.46h-.35v.65h5.11v-.65H253v-.46a.12.12,0,0,0-.12-.12.11.11,0,0,0-.11.12v.46h-.14v-.46a.11.11,0,0,0-.11-.12.12.12,0,0,0-.12.12Z"/><path class="cls-5" d="M242.5,154.69a.14.14,0,1,0,.28,0v-.61h.16v.61a.14.14,0,1,0,.28,0v-.61h.16v.61a.14.14,0,1,0,.28,0v-.61h.16v.61a.15.15,0,0,0,.14.15.15.15,0,0,0,.14-.15v-.61h.17v.61a.15.15,0,0,0,.14.15.15.15,0,0,0,.14-.15v-.61h.16v.61a.14.14,0,1,0,.28,0v-.61h.16v.61a.15.15,0,0,0,.14.15.15.15,0,0,0,.14-.15v-.61h.17v.61a.14.14,0,1,0,.27,0v-.61H246v.61a.15.15,0,0,0,.14.15.15.15,0,0,0,.14-.15v-.61h.16v.61a.14.14,0,1,0,.28,0v-.61h.16v.61a.15.15,0,0,0,.14.15.15.15,0,0,0,.14-.15v-.61h.16v.61a.15.15,0,0,0,.14.15.15.15,0,0,0,.14-.15v-.61h.23V151.3h-.23v-.55a.15.15,0,0,0-.14-.15.15.15,0,0,0-.14.15v.55h-.16v-.55a.15.15,0,0,0-.14-.15.15.15,0,0,0-.14.15v.55h-.16v-.55a.14.14,0,1,0-.28,0v.55h-.16v-.55a.15.15,0,0,0-.14-.15.15.15,0,0,0-.14.15v.55h-.17v-.55a.14.14,0,1,0-.27,0v.55h-.17v-.55a.15.15,0,0,0-.14-.15.15.15,0,0,0-.14.15v.55H245v-.55a.14.14,0,1,0-.28,0v.55h-.16v-.55a.15.15,0,0,0-.14-.15.15.15,0,0,0-.14.15v.55h-.17v-.55a.15.15,0,0,0-.14-.15.15.15,0,0,0-.14.15v.55h-.16v-.55a.14.14,0,1,0-.28,0v.55h-.16v-.55a.14.14,0,1,0-.28,0v.55h-.16v-.55a.14.14,0,1,0-.28,0v.55h-.25v2.78h.25Z"/><path class="cls-5" d="M251.35,149.05a.15.15,0,1,0-.3,0v.62h-.19v-.62a.15.15,0,1,0-.3,0v.62h-.27v-.62a.15.15,0,1,0-.3,0v.62h-.25v-.62a.15.15,0,0,0-.14-.16.15.15,0,0,0-.15.16v.62h-.38v.64h-.68a.15.15,0,0,0-.15.15.17.17,0,0,0,.15.17h.68v.26h-.68a.16.16,0,0,0-.15.16.16.16,0,0,0,.15.16h.68v.3h-.68a.16.16,0,0,0-.15.16.16.16,0,0,0,.15.16h.68V152h-.68a.16.16,0,0,0,0,.32h.68v.56h.38v.54a.15.15,0,0,0,.15.16.15.15,0,0,0,.14-.16v-.54H250v.54a.15.15,0,1,0,.3,0v-.54h.27v.54a.15.15,0,1,0,.3,0v-.54h.19v.54a.15.15,0,1,0,.3,0v-.54h.35v-.56h.59a.16.16,0,0,0,0-.32h-.59v-.21h.59a.16.16,0,0,0,.15-.16.16.16,0,0,0-.15-.16h-.59v-.3h.59a.16.16,0,0,0,.15-.16.16.16,0,0,0-.15-.16h-.59v-.26h.59a.17.17,0,0,0,.15-.17.15.15,0,0,0-.15-.15h-.59v-.64h-.35Z"/><path class="cls-5" d="M245,147.54a.07.07,0,0,0,.07-.07.07.07,0,0,0-.07-.06h-.25v-.27h-.15v-.27a.07.07,0,0,0-.06-.07s-.06,0-.06.07v.27h-.09v-.27a.07.07,0,0,0-.06-.07.07.07,0,0,0-.07.07v.27h-.11v-.27a.07.07,0,0,0-.07-.07.07.07,0,0,0-.06.07v.27h-.1v-.27a.07.07,0,0,0-.07-.07.07.07,0,0,0-.06.07v.27h-.16v.27h-.3a.06.06,0,0,0-.06.06.07.07,0,0,0,.06.07h.3v.12h-.3a.07.07,0,0,0,0,.14h.3v.13h-.3a.07.07,0,0,0-.06.07.06.06,0,0,0,.06.06h.3v.09h-.3s-.06,0-.06.07a.07.07,0,0,0,.06.07h.3v.24h.16v.23a.07.07,0,0,0,.06.07.07.07,0,0,0,.07-.07v-.23h.1v.23a.07.07,0,0,0,.06.07.07.07,0,0,0,.07-.07v-.23h.11v.23a.07.07,0,0,0,.07.07.07.07,0,0,0,.06-.07v-.23h.09v.23s0,.07.06.07a.07.07,0,0,0,.06-.07v-.23h.15v-.24H245a.07.07,0,0,0,.07-.07.08.08,0,0,0-.07-.07h-.25v-.09H245a.07.07,0,0,0,.07-.06.07.07,0,0,0-.07-.07h-.25v-.13H245a.07.07,0,1,0,0-.14h-.25v-.12Z"/><path class="cls-14" d="M246.78,159.81V157.3h-2.49V159l-.93-.27h.22a.15.15,0,0,0,0-.3h-.38v-.18h.38a.14.14,0,0,0,.14-.14.14.14,0,0,0-.14-.15h-.38v-.18h.38a.14.14,0,0,0,.14-.15.15.15,0,0,0-.14-.15h-.38v-.17h.38a.15.15,0,0,0,0-.3h-.38v-.71h4.61v.71h-.36a.15.15,0,0,0,0,.3h.36v.17h-.36a.15.15,0,0,0-.14.15.14.14,0,0,0,.14.15h.36V158h-.36a.14.14,0,0,0-.14.15.14.14,0,0,0,.14.14h.36v.18h-.36a.15.15,0,0,0,0,.3h.36v.17h-.36a.15.15,0,0,0,0,.3h.36v.18h-.36a.15.15,0,0,0,0,.3h.36V160S247.1,159.88,246.78,159.81Z"/><path class="cls-15" d="M243.72,157.2a.15.15,0,0,0-.14-.15h-.8a.15.15,0,0,0,0,.3h.8A.15.15,0,0,0,243.72,157.2Z"/><path class="cls-15" d="M243.72,157.67a.15.15,0,0,0-.14-.15h-.8a.15.15,0,0,0-.14.15.14.14,0,0,0,.14.15h.8A.14.14,0,0,0,243.72,157.67Z"/><path class="cls-15" d="M243.72,158.15a.14.14,0,0,0-.14-.15h-.8a.14.14,0,0,0-.14.15.14.14,0,0,0,.14.14h.8A.14.14,0,0,0,243.72,158.15Z"/><path class="cls-15" d="M247.31,157.2a.15.15,0,0,0,.14.15h.8a.15.15,0,0,0,0-.3h-.8A.15.15,0,0,0,247.31,157.2Z"/><path class="cls-15" d="M247.31,157.67a.14.14,0,0,0,.14.15h.8a.14.14,0,0,0,.13-.15.14.14,0,0,0-.13-.15h-.8A.15.15,0,0,0,247.31,157.67Z"/><path class="cls-15" d="M247.31,158.15a.14.14,0,0,0,.14.14h.8a.13.13,0,0,0,.13-.14.14.14,0,0,0-.13-.15h-.8A.14.14,0,0,0,247.31,158.15Z"/><path class="cls-15" d="M247.31,158.62a.15.15,0,0,0,.14.15h.8a.15.15,0,0,0,0-.3h-.8A.15.15,0,0,0,247.31,158.62Z"/><path class="cls-15" d="M247.31,159.09a.15.15,0,0,0,.14.15h.8a.15.15,0,0,0,0-.3h-.8A.15.15,0,0,0,247.31,159.09Z"/><path class="cls-15" d="M247.31,159.57a.15.15,0,0,0,.14.15h.8a.15.15,0,0,0,0-.3h-.8A.15.15,0,0,0,247.31,159.57Z"/><path class="cls-16" d="M244.29,159.3v-2h2.49v2.51C245.94,159.62,245.12,159.54,244.29,159.3Z"/><path class="cls-6" d="M246.67,147.64a.07.07,0,0,1,.07-.08.08.08,0,0,1,.07.08v.19h.08v-.19a.07.07,0,1,1,.14,0v.19h.08v-.19a.07.07,0,1,1,.14,0v.19h.08v-.19a.08.08,0,0,1,.08-.08.08.08,0,0,1,.07.08v.19h.08v-.19a.07.07,0,1,1,.14,0v.19h.08v-.19a.07.07,0,1,1,.14,0v.19H248v-.19a.08.08,0,0,1,.07-.08.08.08,0,0,1,.08.08v.19h.08v-.19a.07.07,0,1,1,.14,0v.19h.08v-.19a.07.07,0,1,1,.14,0v.19h.1v-.19a.07.07,0,1,1,.14,0v.19h.08v-.19a.07.07,0,1,1,.14,0v.19h.08v-.19a.08.08,0,0,1,.07-.08.07.07,0,0,1,.07.08v.19h.09v-.19a.07.07,0,1,1,.14,0v.19h.08v-.19a.07.07,0,1,1,.14,0v.19h.08v-.19a.07.07,0,1,1,.14,0v.19H250v-.19a.07.07,0,0,1,.07-.08.08.08,0,0,1,.07.08v.19h.08v-.19a.07.07,0,1,1,.14,0v.19h.08v-.19a.07.07,0,0,1,.07-.08.08.08,0,0,1,.08.08v.19h.08v-.19a.07.07,0,1,1,.14,0v.19h.08v-.19a.07.07,0,1,1,.14,0v.19h.08v-.19a.07.07,0,1,1,.14,0v.19h.34v-2.54h-.34v.21a.07.07,0,1,1-.14,0v-.21h-.08v.21a.07.07,0,1,1-.14,0v-.21h-.08v.21a.07.07,0,1,1-.14,0v-.21h-.08v.21a.09.09,0,0,1-.08.08.08.08,0,0,1-.07-.08v-.21h-.08v.21a.07.07,0,1,1-.14,0v-.21h-.08v.21a.08.08,0,0,1-.07.07.07.07,0,0,1-.07-.07v-.21h-.09v.21a.07.07,0,1,1-.14,0v-.21h-.08v.21a.07.07,0,1,1-.14,0v-.21h-.08v.21a.07.07,0,1,1-.14,0v-.21h-.09v.21a.08.08,0,0,1-.07.08.09.09,0,0,1-.07-.08v-.21h-.08v.21a.07.07,0,1,1-.14,0v-.21h-.08v.21a.07.07,0,1,1-.14,0v-.21h-.1v.21a.07.07,0,1,1-.14,0v-.21h-.08v.21a.07.07,0,1,1-.14,0v-.21h-.08v.21a.08.08,0,1,1-.15,0v-.21h-.08v.21a.07.07,0,1,1-.14,0v-.21h-.08v.21a.07.07,0,1,1-.14,0v-.21h-.08v.21a.08.08,0,0,1-.07.07.08.08,0,0,1-.08-.07v-.21h-.08v.21a.07.07,0,1,1-.14,0v-.21H247v.21a.07.07,0,1,1-.14,0v-.21h-.08v.21a.09.09,0,0,1-.07.08.08.08,0,0,1-.07-.08v-.21h-.19v2.54h.19Zm2.71-1.75h1.79v1.38h-1.79Z"/><path class="cls-5" d="M251.21,145.58a.08.08,0,0,0,.07-.08v-.45a.07.07,0,1,0-.14,0v.45A.08.08,0,0,0,251.21,145.58Z"/><path class="cls-5" d="M251,145.58a.08.08,0,0,0,.07-.08v-.45a.07.07,0,1,0-.14,0v.45A.08.08,0,0,0,251,145.58Z"/><path class="cls-5" d="M250.77,145.58a.08.08,0,0,0,.07-.08v-.45a.07.07,0,1,0-.14,0v.45A.08.08,0,0,0,250.77,145.58Z"/><path class="cls-5" d="M250.54,145.58a.09.09,0,0,0,.08-.08v-.45a.08.08,0,0,0-.08-.07.07.07,0,0,0-.07.07v.45A.08.08,0,0,0,250.54,145.58Z"/><path class="cls-5" d="M250.32,145.58a.08.08,0,0,0,.07-.08v-.45a.07.07,0,1,0-.14,0v.45A.08.08,0,0,0,250.32,145.58Z"/><path class="cls-5" d="M250.1,145.57a.08.08,0,0,0,.07-.07v-.45a.08.08,0,0,0-.07-.07.07.07,0,0,0-.07.07v.45A.07.07,0,0,0,250.1,145.57Z"/><path class="cls-5" d="M249.87,145.58a.08.08,0,0,0,.07-.08v-.45a.07.07,0,1,0-.14,0v.45A.08.08,0,0,0,249.87,145.58Z"/><path class="cls-5" d="M249.65,145.58a.08.08,0,0,0,.07-.08v-.45a.07.07,0,1,0-.14,0v.45A.08.08,0,0,0,249.65,145.58Z"/><path class="cls-5" d="M249.43,145.58a.08.08,0,0,0,.07-.08v-.45a.07.07,0,1,0-.14,0v.45A.08.08,0,0,0,249.43,145.58Z"/><path class="cls-5" d="M249.2,145.58a.08.08,0,0,0,.07-.08v-.45a.07.07,0,0,0-.07-.07.08.08,0,0,0-.07.07v.45A.09.09,0,0,0,249.2,145.58Z"/><path class="cls-5" d="M249,145.58a.08.08,0,0,0,.07-.08v-.45a.07.07,0,1,0-.14,0v.45A.08.08,0,0,0,249,145.58Z"/><path class="cls-5" d="M248.76,145.58a.08.08,0,0,0,.07-.08v-.45a.07.07,0,1,0-.14,0v.45A.08.08,0,0,0,248.76,145.58Z"/><path class="cls-5" d="M248.52,145.58a.08.08,0,0,0,.07-.08v-.45a.07.07,0,1,0-.14,0v.45A.08.08,0,0,0,248.52,145.58Z"/><path class="cls-5" d="M248.3,145.58a.08.08,0,0,0,.07-.08v-.45a.07.07,0,1,0-.14,0v.45A.08.08,0,0,0,248.3,145.58Z"/><path class="cls-5" d="M248.07,145.58a.09.09,0,0,0,.08-.08v-.45a.08.08,0,0,0-.08-.07.08.08,0,0,0-.07.07v.45A.09.09,0,0,0,248.07,145.58Z"/><path class="cls-5" d="M247.85,145.58a.08.08,0,0,0,.07-.08v-.45a.07.07,0,1,0-.14,0v.45A.08.08,0,0,0,247.85,145.58Z"/><path class="cls-5" d="M247.63,145.58a.08.08,0,0,0,.07-.08v-.45a.07.07,0,1,0-.14,0v.45A.08.08,0,0,0,247.63,145.58Z"/><path class="cls-5" d="M247.41,145.57a.08.08,0,0,0,.07-.07v-.45a.08.08,0,0,0-.07-.07.08.08,0,0,0-.08.07v.45A.08.08,0,0,0,247.41,145.57Z"/><path class="cls-5" d="M247.18,145.58a.08.08,0,0,0,.07-.08v-.45a.07.07,0,1,0-.14,0v.45A.08.08,0,0,0,247.18,145.58Z"/><path class="cls-5" d="M247,145.58a.08.08,0,0,0,.07-.08v-.45a.07.07,0,1,0-.14,0v.45A.08.08,0,0,0,247,145.58Z"/><path class="cls-5" d="M246.74,145.58a.09.09,0,0,0,.07-.08v-.45a.08.08,0,0,0-.07-.07.07.07,0,0,0-.07.07v.45A.08.08,0,0,0,246.74,145.58Z"/><path class="cls-5" d="M251.21,147.56a.07.07,0,0,0-.07.08v.44a.07.07,0,1,0,.14,0v-.44A.07.07,0,0,0,251.21,147.56Z"/><path class="cls-5" d="M251,147.56a.07.07,0,0,0-.07.08v.44a.07.07,0,1,0,.14,0v-.44A.07.07,0,0,0,251,147.56Z"/><path class="cls-5" d="M250.77,147.56a.07.07,0,0,0-.07.08v.44a.07.07,0,1,0,.14,0v-.44A.07.07,0,0,0,250.77,147.56Z"/><path class="cls-5" d="M250.54,147.56a.07.07,0,0,0-.07.08v.44a.08.08,0,0,0,.07.08.09.09,0,0,0,.08-.08v-.44A.08.08,0,0,0,250.54,147.56Z"/><path class="cls-5" d="M250.32,147.56a.07.07,0,0,0-.07.08v.44a.07.07,0,1,0,.14,0v-.44A.07.07,0,0,0,250.32,147.56Z"/><path class="cls-5" d="M250.1,147.56a.07.07,0,0,0-.07.08v.44a.07.07,0,0,0,.07.07.08.08,0,0,0,.07-.07v-.44A.08.08,0,0,0,250.1,147.56Z"/><path class="cls-5" d="M249.87,147.56a.07.07,0,0,0-.07.08v.44a.07.07,0,1,0,.14,0v-.44A.07.07,0,0,0,249.87,147.56Z"/><path class="cls-5" d="M249.65,147.56a.07.07,0,0,0-.07.08v.44a.07.07,0,1,0,.14,0v-.44A.07.07,0,0,0,249.65,147.56Z"/><path class="cls-5" d="M249.43,147.56a.07.07,0,0,0-.07.08v.44a.07.07,0,1,0,.14,0v-.44A.07.07,0,0,0,249.43,147.56Z"/><path class="cls-5" d="M249.2,147.56a.08.08,0,0,0-.07.08v.44a.09.09,0,0,0,.07.08.08.08,0,0,0,.07-.08v-.44A.07.07,0,0,0,249.2,147.56Z"/><path class="cls-5" d="M249,147.56a.07.07,0,0,0-.07.08v.44a.07.07,0,1,0,.14,0v-.44A.07.07,0,0,0,249,147.56Z"/><path class="cls-5" d="M248.76,147.56a.07.07,0,0,0-.07.08v.44a.07.07,0,1,0,.14,0v-.44A.07.07,0,0,0,248.76,147.56Z"/><path class="cls-5" d="M248.52,147.56a.07.07,0,0,0-.07.08v.44a.07.07,0,1,0,.14,0v-.44A.07.07,0,0,0,248.52,147.56Z"/><path class="cls-5" d="M248.3,147.56a.07.07,0,0,0-.07.08v.44a.07.07,0,1,0,.14,0v-.44A.07.07,0,0,0,248.3,147.56Z"/><path class="cls-5" d="M248.07,147.56a.08.08,0,0,0-.07.08v.44a.08.08,0,1,0,.15,0v-.44A.08.08,0,0,0,248.07,147.56Z"/><path class="cls-5" d="M247.85,147.56a.07.07,0,0,0-.07.08v.44a.07.07,0,1,0,.14,0v-.44A.07.07,0,0,0,247.85,147.56Z"/><path class="cls-5" d="M247.63,147.56a.07.07,0,0,0-.07.08v.44a.07.07,0,1,0,.14,0v-.44A.07.07,0,0,0,247.63,147.56Z"/><path class="cls-5" d="M247.41,147.56a.08.08,0,0,0-.08.08v.44a.08.08,0,0,0,.08.07.08.08,0,0,0,.07-.07v-.44A.08.08,0,0,0,247.41,147.56Z"/><path class="cls-5" d="M247.18,147.56a.07.07,0,0,0-.07.08v.44a.07.07,0,1,0,.14,0v-.44A.07.07,0,0,0,247.18,147.56Z"/><path class="cls-5" d="M247,147.56a.07.07,0,0,0-.07.08v.44a.07.07,0,1,0,.14,0v-.44A.07.07,0,0,0,247,147.56Z"/><path class="cls-5" d="M246.74,147.56a.07.07,0,0,0-.07.08v.44a.08.08,0,0,0,.07.08.09.09,0,0,0,.07-.08v-.44A.08.08,0,0,0,246.74,147.56Z"/><rect class="cls-9" x="249.38" y="145.89" width="1.79" height="1.37"/><path class="cls-13" d="M250.58,156.18a.85.85,0,1,0,.78.84A.81.81,0,0,0,250.58,156.18Z"/><path class="cls-5" d="M255.44,155.33a.52.52,0,1,0-.47-.52A.5.5,0,0,0,255.44,155.33Z"/><path class="cls-5" d="M246.68,149.75a.57.57,0,0,0,0-1.13.57.57,0,0,0,0,1.13Z"/><polygon class="cls-14" points="244.29 159.04 244.29 159.3 243.2 159.04 243.2 158.77 243.87 158.77 244.29 159.04"/><polygon class="cls-17" points="243.2 158.77 243.2 159.04 242.25 158.81 242.25 158.44 243.18 158.56 243.2 158.77"/><path class="cls-15" d="M243.74,158.62a.15.15,0,0,0-.14-.15h-.8a.15.15,0,0,0,0,.3h.8A.15.15,0,0,0,243.74,158.62Z"/><polygon class="cls-17" points="247.81 159.72 247.81 159.99 248.7 160.14 248.7 159.93 247.81 159.72"/><rect class="cls-8" x="234.87" y="155" width="39.99" height="28.09" transform="translate(509.73 338.09) rotate(180)"/><rect class="cls-9" x="259.97" y="155" width="17.86" height="28.09" transform="translate(537.79 338.09) rotate(180)"/><rect class="cls-8" x="264.33" y="158.94" width="8.39" height="2.95" rx="0.75" transform="translate(537.05 320.83) rotate(180)"/><path class="cls-6" d="M376.06,48.32a2.8,2.8,0,0,1-.27-4l1.8-2.08a2.81,2.81,0,1,1,4.24,3.7L380,48.05A2.82,2.82,0,0,1,376.06,48.32Z"/><path class="cls-3" d="M179.43,71.38a6.16,6.16,0,0,1-.74-2.72,27.65,27.65,0,0,1-.1-3.52l0,0a3.64,3.64,0,0,1,3-2,2.84,2.84,0,0,1,2.77,1.11,5.26,5.26,0,0,1,.92,2.77c.2,2-.16,4.26-1.88,5.42a2.78,2.78,0,0,1-1.49.51A3.06,3.06,0,0,1,179.43,71.38Z"/><path class="cls-3" d="M164.63,68.83a6.51,6.51,0,0,1,1.49-2.62,29,29,0,0,1,2.57-2.74h.07a3.86,3.86,0,0,1,3.75.7,3,3,0,0,1,1.26,2.92,5.57,5.57,0,0,1-1.38,2.8c-1.37,1.67-3.33,3.1-5.51,2.68a3,3,0,0,1-1.51-.73A3.24,3.24,0,0,1,164.63,68.83Z"/><path class="cls-3" d="M40.13,58.54c1.16,2,.95,4.25-.46,5.07S36.19,63.49,35,61.5s-1-4.25.46-5.07S39,56.56,40.13,58.54Z"/><path class="cls-4" d="M434,69.84c-2.77-1.9-6.87-.55-8.87,2.94s-2.12,16-2.12,16,9.65-5.53,11.8-9.07S436.72,71.75,434,69.84Zm-4.83,12.33c-2.63-.11-4.43-2.82-4-6.08s3-5.85,5.88-5.81,4.67,2.76,4.05,6.08S431.8,82.28,429.16,82.17Z"/><path class="cls-4" d="M435,65l-1.24.26c0-.27-.07-.43-.25-.53a2,2,0,0,0-1.31-.17c.11.75.17,1.12.27,1.87.09.55.13.83.21,1.38a8.84,8.84,0,0,0-1.25-.12c-.08-.51-.11-.76-.19-1.27-.17-1.11-.26-1.66-.44-2.76l.61-.21c.2,0,1.89-.64,2.92.11A1.81,1.81,0,0,1,435,65Z"/><path class="cls-4" d="M422.59,78.54c-1,2.12-3,3.45-5.07,3.16-2.32-.36-4.09-2.79-4.11-5.61,0-3.28,2.46-6,5.41-5.92a4.76,4.76,0,0,1,4.52,4.35,11.63,11.63,0,0,1,.72-2A5.6,5.6,0,0,0,416,69.66a7.56,7.56,0,0,0-3.05,9.39c1.15,2.86,7.19,7.71,9,9.29C422,86.66,422.14,82.41,422.59,78.54Z"/><path class="cls-4" d="M430,66.56a9.58,9.58,0,0,0-5,2.69,7.18,7.18,0,0,0-4.37-2.75l-.48,1.24a6.29,6.29,0,0,1,4,2.55,6.49,6.49,0,0,1,.61,1.06,9.7,9.7,0,0,1,.86-1,8.62,8.62,0,0,1,4.57-2.48C430.13,67.32,430.1,67.07,430,66.56Z"/><path class="cls-4" d="M418.75,65.55h.52a3,3,0,0,0,.76,0c0-.52,0-.78,0-1.3-1.2.1-3.06-.06-3.55-.68l-1.09.57a.76.76,0,0,0,.18.26,3,3,0,0,0,1.9,1c.1.44.15.65.26,1.09s.17.74.29,1.24a5.47,5.47,0,0,1,1,0h.23l-.32-1.3C418.85,66,418.82,65.86,418.75,65.55Z"/></svg>